<svg width="320" height="498" viewBox="0 0 320 498" fill="none" xmlns="http://www.w3.org/2000/svg">
<path d="M-1081.13 489.52L-1021.61 460.61C-962.093 431.701 -843.059 373.881 -723.834 286.764C-604.609 199.647 -485.193 83.2325 -366.607 93.8957C-248.011 103.094 -130.27 243.032 -11.93 291.416C106.41 339.799 225.3 303.953 343.831 323.039C462.362 342.125 580.486 423.469 699.082 432.667C817.668 443.33 936.701 385.51 1055.93 298.393C1175.15 211.276 1294.57 94.8619 1413.22 95.6372C1531.87 96.4125 1649.75 214.378 1768.15 254.338C1886.55 292.834 2005.44 256.987 2123.91 285.962C2242.36 317.133 2360.39 413.125 2478.9 434.775C2597.43 454.959 2716.46 397.14 2835.69 310.023C2954.91 222.906 3074.33 106.491 3192.79 136.564C3311.25 166.637 3428.75 343.197 3547.34 353.86C3665.93 363.058 3785.59 210.022 3904.82 121.806C4024.04 35.788 4142.83 14.5902 4261.15 65.5373C4379.49 115.02 4497.37 232.985 4615.57 302.243C4733.79 370.036 4852.29 392.784 4970.89 401.983C5089.48 412.646 5208.13 413.421 5326.9 394.787C5445.69 374.688 5564.58 338.841 5683.69 270.035C5802.79 201.229 5922.07 106.788 6040.79 96.5763C6159.51 86.3651 6277.63 167.708 6395.78 245.389C6513.93 323.071 6632.06 404.414 6750.46 442.91C6868.85 482.87 6987.51 483.645 7106.22 474.533C7224.93 466.885 7343.72 445.687 7403.1 437.652L7462.49 428.152L7461.34 603.936L7402.02 603.549C7342.69 603.161 7224.04 602.386 7105.39 601.611C6986.74 600.835 6868.09 600.06 6749.44 599.285C6630.79 598.509 6512.14 597.734 6393.49 596.959C6274.83 596.183 6156.18 595.408 6037.53 594.633C5918.88 593.858 5800.23 593.082 5681.58 592.307C5562.93 591.532 5444.28 590.756 5325.63 589.981C5206.98 589.206 5088.33 588.43 4969.68 587.655C4851.03 586.88 4732.38 586.105 4613.72 585.329C4495.07 584.554 4376.42 583.779 4257.77 583.003C4139.12 582.228 4020.47 581.453 3901.82 580.678C3783.17 579.902 3664.52 579.127 3545.87 578.352C3427.22 577.576 3308.57 576.801 3189.92 576.026C3071.27 575.25 2952.61 574.475 2833.96 573.7C2715.31 572.925 2596.66 572.149 2478.01 571.374C2359.36 570.599 2240.71 569.823 2122.06 569.048C2003.41 568.273 1884.76 567.497 1766.11 566.722C1647.46 565.947 1528.81 565.172 1410.16 564.396C1291.5 563.621 1172.85 562.846 1054.2 562.07C935.553 561.295 816.902 560.52 698.251 559.744C579.601 558.969 460.95 558.194 342.299 557.419C223.648 556.643 104.998 555.868 -13.653 555.093C-132.304 554.317 -250.954 553.542 -369.605 552.767C-488.256 551.992 -606.907 551.216 -725.557 550.441C-844.208 549.666 -962.859 548.89 -1022.18 548.503L-1081.51 548.115L-1081.13 489.52Z" fill="url(#paint0_linear_131_3)"/>
<path opacity="0.9" d="M-1078.06 20.7611L-1018.74 21.1488C-959.413 21.5364 -840.762 22.3117 -722.43 71.794C-604.107 122.741 -486.078 218.733 -367.818 279.202C-249.543 337.473 -131.035 360.222 -12.2483 340.123C106.529 321.488 225.563 263.669 344.087 283.854C462.601 305.503 580.63 401.495 699.527 364.55C818.434 326.14 938.233 151.131 1057.39 73.9018C1176.56 -4.79223 1295.07 17.9561 1413.47 56.4519C1531.87 96.4125 1650.14 155.783 1768.47 205.265C1886.79 256.212 2005.2 293.609 2124.1 256.664C2243.01 218.254 2362.42 101.84 2481.39 53.9079C2600.37 4.51132 2718.88 27.2597 2837.03 104.941C2955.18 182.622 3072.92 322.56 3191.64 312.349C3310.36 302.137 3430.02 149.101 3548.61 158.3C3667.2 168.963 3784.7 345.523 3903.35 346.298C4022 347.073 4141.8 172.064 4260.9 104.356C4379.99 38.1138 4498.4 75.5109 4616.6 145.868C4734.79 216.224 4852.82 312.216 4971.53 304.569C5090.24 295.456 5209.66 179.042 5328.69 121.222C5447.73 63.4024 5566.38 64.1777 5685.09 55.0651C5803.8 47.4174 5922.59 26.2196 6040.79 96.5763C6158.98 166.933 6276.63 321.52 6394.76 401.764C6512.9 480.544 6631.55 481.319 6750.33 462.685C6869.12 442.586 6988.01 406.74 7106.99 357.343C7225.96 309.411 7344.99 251.592 7404.51 222.682L7464.02 193.772L7461.34 603.936L7402.02 603.549C7342.69 603.161 7224.04 602.386 7105.39 601.61C6986.74 600.835 6868.09 600.06 6749.44 599.285C6630.79 598.509 6512.14 597.734 6393.49 596.959C6274.83 596.183 6156.18 595.408 6037.53 594.633C5918.88 593.858 5800.23 593.082 5681.58 592.307C5562.93 591.532 5444.28 590.756 5325.63 589.981C5206.98 589.206 5088.33 588.43 4969.68 587.655C4851.03 586.88 4732.38 586.105 4613.72 585.329C4495.07 584.554 4376.42 583.779 4257.77 583.003C4139.12 582.228 4020.47 581.453 3901.82 580.677C3783.17 579.902 3664.52 579.127 3545.87 578.352C3427.22 577.576 3308.57 576.801 3189.92 576.026C3071.27 575.25 2952.61 574.475 2833.96 573.7C2715.31 572.925 2596.66 572.149 2478.01 571.374C2359.36 570.599 2240.71 569.823 2122.06 569.048C2003.41 568.273 1884.76 567.497 1766.11 566.722C1647.46 565.947 1528.81 565.172 1410.16 564.396C1291.5 563.621 1172.85 562.846 1054.2 562.07C935.553 561.295 816.902 560.52 698.251 559.744C579.601 558.969 460.95 558.194 342.299 557.419C223.648 556.643 104.998 555.868 -13.653 555.093C-132.304 554.317 -250.954 553.542 -369.605 552.767C-488.256 551.992 -606.907 551.216 -725.557 550.441C-844.208 549.666 -962.859 548.89 -1022.18 548.503L-1081.51 548.115L-1078.06 20.7611Z" fill="url(#paint1_linear_131_3)"/>
<defs>
<linearGradient id="paint0_linear_131_3" x1="-1081.51" y1="548.115" x2="-1077.96" y2="4.16431" gradientUnits="userSpaceOnUse">
<stop stop-color="#1A325F" stop-opacity="0.29"/>
<stop offset="1" stop-color="#00AEDF" stop-opacity="0.211765"/>
</linearGradient>
<linearGradient id="paint1_linear_131_3" x1="-1081.51" y1="548.115" x2="-1077.93" y2="0.838196" gradientUnits="userSpaceOnUse">
<stop offset="0.285" stop-color="#173D4F" stop-opacity="0.56"/>
<stop offset="1" stop-color="#00AEDF" stop-opacity="0.211765"/>
</linearGradient>
</defs>
</svg>
