<svg version="1.2" xmlns="http://www.w3.org/2000/svg" viewBox="0 0 320 505" width="320" height="505"><defs><linearGradient id="P" gradientUnits="userSpaceOnUse"/><linearGradient id="g1" x2="1" href="#P" gradientTransform="matrix(0,-568.832,12600.041,0,-891,505.965)"><stop stop-color="#003249" stop-opacity=".26"/><stop offset=".7" stop-color="#00aedf" stop-opacity=".21"/></linearGradient><linearGradient id="g2" x2="1" href="#P" gradientTransform="matrix(0,-576.072,12600.017,0,-891,500.8)"><stop stop-color="#003249" stop-opacity=".26"/><stop offset=".7" stop-color="#00aedf" stop-opacity=".21"/></linearGradient></defs><style>.a{opacity:.9;fill:url(#g1)}.b{fill:url(#g2)}</style><path class="a" d="m-891-43.6h87.5c87.5 0 262.5 0 437.5 47 175 47 350 141 525 197.4q262.5 84.6 525 56.4c175-18.8 350-75.2 525-56.4 175 18.8 350 112.8 525 75.2 175-37.6 350-206.8 525-282 175-75.2 350-56.4 525-18.8 175 37.6 350 94 525 141 175 47 350 84.6 525 47 175-37.6 350-150.4 525-197.4 175-47 350-28.2 525 47 175 75.2 350 206.8 525 197.4 175-9.4 350-159.8 525-150.4 175 9.4 350 178.6 525 178.6 175 0 350-169.2 525-235 175-65.8 350-28.2 525 37.6 175 65.8 350 159.8 525 150.4 175-9.4 350-122.2 525-178.6 175-56.4 350-56.4 525-65.8 175-9.4 350-28.2 525 37.6 175 65.8 350 216.2 525 291.4 175 75.2 350 75.2 525 56.4 175-18.8 350-56.4 525-103.4 175-47 350-103.4 437.5-131.6l87.5-28.2v394.8h-87.5c-87.5 0-262.5 0-437.5 0q-262.5 0-525 0-262.5 0-525 0-262.5 0-525 0-262.5 0-525 0-262.5 0-525 0-262.5 0-525 0-262.5 0-525 0-262.5 0-525 0-262.5 0-525 0-262.5 0-525 0-262.5 0-525 0-262.5 0-525 0-262.5 0-525 0-262.5 0-525 0-262.5 0-525 0-262.5 0-525 0-262.5 0-525 0-262.5 0-525 0-262.5 0-525 0c-175 0-421-6.2-596-6.2-175 0-83 5-337 45-106.8 16.8-467-38.8-642-38.8-175 0-350 0-437.5 0h-87.5z"/><path class="b" d="m-891 405.9l87.5-29.1c87.5-29 262.5-87.1 437.5-174.3 175-87.2 350-203.4 525-193.7 175 9.7 350 145.3 525 193.7 175 48.4 350 9.7 525 29 175 19.4 350 96.9 525 106.6 175 9.7 350-48.4 525-135.6 175-87.2 350-203.4 525-203.4 175 0 350 116.2 525 155 175 38.7 350 0 525 29 175 29.1 350 125.9 525 145.3 175 19.4 350-38.7 525-125.9 175-87.2 350-203.4 525-174.3 175 29 350 203.3 525 213 175 9.7 350-145.2 525-232.4q262.5-130.8 525-58.1c175 48.4 350 164.6 525 232.4 175 67.8 350 87.2 525 96.9 175 9.7 350 9.7 525-9.7 175-19.4 350-58.1 525-125.9 175-67.8 350-164.7 525-174.4 175-9.6 350 67.8 525 145.3 175 77.5 350 155 525 193.7 175 38.8 350 38.8 525 29.1 175-9.7 350-29.1 437.5-38.8l87.5-9.6v174.3h-87.5c-87.5 0-262.5 0-437.5 0q-262.5 0-525 0-262.5 0-525 0-262.5 0-525 0-262.5 0-525 0-262.5 0-525 0-262.5 0-525 0-262.5 0-525 0-262.5 0-525 0-262.5 0-525 0-262.5 0-525 0-262.5 0-525 0-262.5 0-525 0-262.5 0-525 0-262.5 0-525 0-262.5 0-525 0-262.5 0-525 0-262.5 0-525 0-262.5 0-525 0-262.5 0-525 0c-175 0-554-69.2-729-69.2-175 0-287 106-462 106-175 0-209-36.8-384-36.8-175 0-350 0-437.5 0h-87.5z"/></svg>